<?xml version="1.0" standalone="no"?>
<svg version="1.0" xmlns="http://www.w3.org/2000/svg"
 width="128.000000pt" height="128.000000pt" viewBox="0 0 128.000000 128.000000"
 preserveAspectRatio="xMidYMid meet">

<g transform="translate(0.000000,128.000000) scale(0.100000,-0.100000)"
fill="#000000" stroke="none">
<path d="M306 1132 c-7 -44 -18 -57 -58 -67 -42 -11 -55 -34 -61 -114 -5 -62
-2 -85 20 -150 36 -107 30 -170 -20 -236 -80 -105 -127 -241 -127 -372 l0 -73
305 0 305 0 0 78 c0 132 -46 263 -129 372 -41 53 -42 57 -38 110 3 30 17 83
31 117 20 49 26 80 26 141 0 92 -11 113 -69 131 -40 12 -44 18 -53 76 -3 17
-12 20 -64 23 l-61 3 -7 -39z m104 -17 c0 -25 33 -68 59 -76 20 -7 -4 -59 -27
-59 -11 0 -31 -10 -46 -21 l-27 -21 -23 21 c-12 11 -30 21 -39 21 -15 0 -37
28 -37 48 0 5 11 14 24 20 17 7 29 25 36 52 10 37 13 40 45 40 31 0 35 -3 35
-25z m-164 -131 c-3 -8 -10 -14 -16 -14 -11 0 -14 43 -3 54 10 10 26 -23 19
-40z m284 -1 c0 -16 -4 -21 -15 -17 -15 6 -21 45 -8 57 9 10 23 -14 23 -40z
m-183 -69 l29 -37 22 37 c18 31 26 36 58 36 43 0 74 -23 74 -55 0 -11 -14 -59
-31 -106 -24 -66 -30 -95 -27 -137 l5 -52 -53 -40 c-29 -22 -56 -40 -59 -40
-3 0 -30 18 -59 40 l-53 40 4 68 c4 55 0 81 -21 141 -14 41 -26 80 -26 88 0
25 39 53 74 53 27 0 40 -7 63 -36z m9 -427 c6 -4 41 16 77 43 l66 50 31 -46
c69 -99 110 -223 110 -329 0 -42 -4 -55 -15 -55 -9 0 -16 14 -20 38 -13 86
-27 140 -40 158 -23 32 -29 8 -12 -53 8 -32 18 -77 21 -100 l6 -43 -39 0 -38
0 -7 52 c-8 62 -34 148 -45 148 -17 0 -17 -13 0 -77 10 -38 18 -80 18 -95 l1
-28 -88 0 -88 0 7 63 c4 34 12 75 18 90 14 37 14 47 -3 47 -15 0 -44 -97 -48
-160 -3 -34 -5 -35 -45 -38 l-43 -3 0 42 c0 24 7 69 16 101 9 32 14 62 10 66
-21 20 -56 -87 -56 -168 0 -38 -2 -40 -30 -40 -29 0 -30 1 -30 49 0 107 37
224 101 321 l41 60 56 -43 c31 -24 62 -46 68 -50z"/>
<path d="M867 1143 c-4 -3 -7 -14 -7 -24 0 -11 -9 -19 -22 -21 -15 -2 -24 -11
-26 -25 -3 -17 -15 -25 -60 -38 -103 -30 -102 -27 -102 -260 0 -143 3 -204 12
-213 7 -7 29 -12 50 -12 l38 0 0 -198 c0 -141 3 -201 12 -210 17 -17 329 -17
346 0 9 9 12 69 12 209 l0 198 43 3 42 3 3 212 2 211 -27 20 c-16 11 -51 27
-78 35 -39 11 -51 19 -53 37 -2 12 -12 24 -22 27 -10 3 -21 16 -24 29 -6 22
-11 24 -70 24 -34 0 -66 -3 -69 -7z m113 -33 c0 -5 -20 -10 -45 -10 -25 0 -45
5 -45 10 0 6 20 10 45 10 25 0 45 -4 45 -10z m40 -50 c0 -5 -6 -10 -13 -10 -8
0 -28 -7 -45 -15 -28 -14 -34 -14 -61 0 -17 8 -37 15 -46 15 -8 0 -15 5 -15
10 0 6 37 10 90 10 53 0 90 -4 90 -10z m-198 -73 l-31 -32 19 -30 c15 -22 19
-40 15 -70 -5 -37 -2 -44 46 -100 28 -33 55 -61 59 -63 4 -2 33 26 64 62 52
59 57 68 55 108 -2 29 4 53 16 72 l19 29 -34 30 -35 29 40 -7 c22 -3 59 -15
83 -25 l42 -19 0 -170 0 -171 -30 0 -30 0 0 80 c0 64 -3 80 -15 80 -13 0 -15
-22 -15 -140 l0 -140 -155 0 -155 0 0 145 c0 122 -2 145 -15 145 -12 0 -15
-16 -15 -85 l0 -85 -35 0 -35 0 0 169 c0 136 3 171 15 181 19 16 93 39 129 39
l30 1 -32 -33z m138 2 c0 -9 -29 -75 -30 -68 0 4 -7 22 -15 41 l-14 35 29 -1
c17 -1 30 -4 30 -7z m80 -34 c0 -6 -6 -20 -14 -30 -8 -11 -11 -34 -9 -59 4
-36 1 -45 -27 -71 -27 -25 -31 -26 -27 -10 3 11 13 61 22 112 16 86 18 91 36
80 10 -6 19 -17 19 -22z m-157 -72 c22 -123 22 -121 -9 -84 -20 24 -24 37 -19
65 5 24 2 42 -10 60 -14 21 -15 29 -5 41 7 8 15 15 19 15 3 0 14 -44 24 -97z
m-133 -293 c0 -5 -16 -10 -35 -10 -19 0 -35 5 -35 10 0 6 16 10 35 10 19 0 35
-4 35 -10z m430 0 c0 -5 -13 -10 -30 -10 -16 0 -30 5 -30 10 0 6 14 10 30 10
17 0 30 -4 30 -10z m-260 -270 l0 -160 -70 0 -70 0 0 160 0 160 70 0 70 0 0
-160z m170 0 l0 -160 -70 0 -70 0 0 160 0 160 70 0 70 0 0 -160z"/>
<path d="M990 725 c0 -13 9 -16 43 -13 23 2 42 8 42 13 0 6 -19 11 -42 13 -34
3 -43 0 -43 -13z"/>
<path d="M903 664 c-3 -9 -2 -24 4 -33 7 -11 7 -21 0 -32 -24 -38 25 -68 53
-33 11 12 10 18 -3 31 -15 15 -15 19 -2 33 9 10 13 25 9 34 -8 21 -53 21 -61
0z"/>
</g>
</svg>
